<mxfile host="app.diagrams.net" agent="Mozilla/5.0 (Windows NT 10.0; Win64; x64) AppleWebKit/537.36 (KHTML, like Gecko) Chrome/131.0.0.0 Safari/537.36" version="25.0.1">
  <diagram name="Page-1" id="03018318-947c-dd8e-b7a3-06fadd420f32">
    <mxGraphModel dx="3354" dy="1258" grid="1" gridSize="10" guides="1" tooltips="1" connect="1" arrows="1" fold="1" page="1" pageScale="1" pageWidth="1100" pageHeight="850" background="none" math="0" shadow="0">
      <root>
        <mxCell id="0" />
        <mxCell id="1" parent="0" />
        <mxCell id="677b7b8949515195-1" value="" style="whiteSpace=wrap;html=1;rounded=0;shadow=0;labelBackgroundColor=none;strokeColor=#000000;strokeWidth=1;fillColor=none;fontFamily=Verdana;fontSize=12;fontColor=#000000;align=center;comic=1;" parent="1" vertex="1">
          <mxGeometry x="20" y="40" width="1060" height="790" as="geometry" />
        </mxCell>
        <mxCell id="677b7b8949515195-2" value="4th Wall Cafe" style="whiteSpace=wrap;html=1;rounded=0;shadow=0;labelBackgroundColor=none;strokeWidth=1;fontFamily=Verdana;fontSize=28;align=center;comic=1;" parent="1" vertex="1">
          <mxGeometry x="40" y="60" width="300" height="50" as="geometry" />
        </mxCell>
        <mxCell id="677b7b8949515195-4" value="Menu" style="text;html=1;points=[];align=left;verticalAlign=top;spacingTop=-4;fontSize=14;fontFamily=Verdana" parent="1" vertex="1">
          <mxGeometry x="780" y="50" width="60" height="20" as="geometry" />
        </mxCell>
        <mxCell id="677b7b8949515195-5" value="Reports" style="text;html=1;points=[];align=left;verticalAlign=top;spacingTop=-4;fontSize=14;fontFamily=Verdana" parent="1" vertex="1">
          <mxGeometry x="847.6" y="50" width="60" height="20" as="geometry" />
        </mxCell>
        <mxCell id="677b7b8949515195-6" value="Manage" style="text;html=1;points=[];align=left;verticalAlign=top;spacingTop=-4;fontSize=14;fontFamily=Verdana" parent="1" vertex="1">
          <mxGeometry x="930" y="50" width="60" height="20" as="geometry" />
        </mxCell>
        <mxCell id="677b7b8949515195-7" value="Logout" style="text;html=1;points=[];align=left;verticalAlign=top;spacingTop=-4;fontSize=14;fontFamily=Verdana" parent="1" vertex="1">
          <mxGeometry x="1000" y="50" width="60" height="20" as="geometry" />
        </mxCell>
        <mxCell id="677b7b8949515195-9" value="" style="line;strokeWidth=1;html=1;rounded=0;shadow=0;labelBackgroundColor=none;fillColor=none;fontFamily=Verdana;fontSize=14;fontColor=#000000;align=center;comic=1;" parent="1" vertex="1">
          <mxGeometry x="20" y="140" width="1060" height="10" as="geometry" />
        </mxCell>
        <mxCell id="677b7b8949515195-10" value="" style="whiteSpace=wrap;html=1;rounded=0;shadow=0;labelBackgroundColor=none;strokeWidth=1;fillColor=none;fontFamily=Verdana;fontSize=12;align=center;comic=1;" parent="1" vertex="1">
          <mxGeometry x="30" y="160" width="1040" height="50" as="geometry" />
        </mxCell>
        <mxCell id="677b7b8949515195-15" value="&lt;div style=&quot;&quot;&gt;&lt;font style=&quot;font-size: 18px;&quot;&gt;by Thomas Roth&lt;/font&gt;&lt;/div&gt;" style="whiteSpace=wrap;html=1;rounded=0;shadow=0;labelBackgroundColor=none;strokeWidth=1;fillColor=none;fontFamily=Verdana;fontSize=12;align=left;verticalAlign=top;spacing=10;comic=1;" parent="1" vertex="1">
          <mxGeometry x="20" y="700" width="580" height="130" as="geometry" />
        </mxCell>
        <mxCell id="677b7b8949515195-26" value="" style="whiteSpace=wrap;html=1;rounded=0;shadow=0;labelBackgroundColor=none;strokeWidth=1;fillColor=none;fontFamily=Verdana;fontSize=12;align=center;comic=1;" parent="1" vertex="1">
          <mxGeometry x="600" y="700" width="480" height="130" as="geometry" />
        </mxCell>
        <mxCell id="677b7b8949515195-42" value="External Links" style="text;html=1;points=[];align=left;verticalAlign=top;spacingTop=-4;fontSize=14;fontFamily=Verdana" parent="1" vertex="1">
          <mxGeometry x="640" y="718.68" width="170" height="20" as="geometry" />
        </mxCell>
        <mxCell id="xNktOV-b6tnxYs5pCYwV-17" value="" style="dashed=0;outlineConnect=0;html=1;align=center;labelPosition=center;verticalLabelPosition=bottom;verticalAlign=top;shape=mxgraph.webicons.github;gradientColor=#DFDEDE" parent="1" vertex="1">
          <mxGeometry x="650" y="748.68" width="42.4" height="42.4" as="geometry" />
        </mxCell>
        <mxCell id="xNktOV-b6tnxYs5pCYwV-18" value="" style="dashed=0;outlineConnect=0;html=1;align=center;labelPosition=center;verticalLabelPosition=bottom;verticalAlign=top;shape=mxgraph.weblogos.linkedin;fillColor=#0095DB;gradientColor=#006391" parent="1" vertex="1">
          <mxGeometry x="860" y="748.91" width="27.4" height="28.93" as="geometry" />
        </mxCell>
        <mxCell id="xNktOV-b6tnxYs5pCYwV-19" value="My Github" style="text;html=1;align=left;verticalAlign=middle;whiteSpace=wrap;rounded=0;" parent="1" vertex="1">
          <mxGeometry x="692.4" y="754.88" width="60" height="30" as="geometry" />
        </mxCell>
        <mxCell id="xNktOV-b6tnxYs5pCYwV-20" value="&lt;font style=&quot;font-size: 18px;&quot;&gt;Contact Me&lt;/font&gt;" style="text;strokeColor=none;fillColor=none;html=1;fontSize=24;fontStyle=1;verticalAlign=middle;align=center;" parent="1" vertex="1">
          <mxGeometry x="820" y="708.91" width="100" height="40" as="geometry" />
        </mxCell>
        <mxCell id="xNktOV-b6tnxYs5pCYwV-22" value="" style="shape=message;html=1;html=1;outlineConnect=0;labelPosition=center;verticalLabelPosition=bottom;align=center;verticalAlign=top;" parent="1" vertex="1">
          <mxGeometry x="853.7" y="793.25" width="40" height="25.66" as="geometry" />
        </mxCell>
        <mxCell id="xNktOV-b6tnxYs5pCYwV-23" value="Linked In" style="text;html=1;align=center;verticalAlign=middle;whiteSpace=wrap;rounded=0;" parent="1" vertex="1">
          <mxGeometry x="900" y="752.17" width="60" height="30" as="geometry" />
        </mxCell>
        <mxCell id="xNktOV-b6tnxYs5pCYwV-24" value="thomas.roth@aon.at" style="text;html=1;align=center;verticalAlign=middle;whiteSpace=wrap;rounded=0;" parent="1" vertex="1">
          <mxGeometry x="930" y="791.0799999999999" width="60" height="30" as="geometry" />
        </mxCell>
        <mxCell id="z-67hpvK6l74vBA2kNS7-2" value="" style="line;strokeWidth=2;html=1;" parent="1" vertex="1">
          <mxGeometry x="930" y="70" width="60" height="10" as="geometry" />
        </mxCell>
        <mxCell id="Wy0h9nK7tvIYCn-riC21-105" value="" style="verticalLabelPosition=bottom;shadow=0;dashed=0;align=center;html=1;verticalAlign=top;strokeWidth=1;shape=mxgraph.mockup.navigation.scrollBar;strokeColor=#999999;barPos=98.857;fillColor2=#99ddff;strokeColor2=none;direction=north;" parent="1" vertex="1">
          <mxGeometry x="1050" y="230" width="20" height="450" as="geometry" />
        </mxCell>
        <mxCell id="HEE8X-NlxO-QjpKQm_0w-55" value="Order By" style="text;html=1;align=center;verticalAlign=middle;whiteSpace=wrap;rounded=0;" parent="1" vertex="1">
          <mxGeometry x="100" y="170" width="60" height="30" as="geometry" />
        </mxCell>
        <mxCell id="HEE8X-NlxO-QjpKQm_0w-60" value="Items" style="html=1;shadow=0;dashed=0;shape=mxgraph.bootstrap.rrect;rSize=5;strokeColor=none;strokeWidth=1;fillColor=none;fontColor=#0085FC;whiteSpace=wrap;align=center;verticalAlign=middle;spacingLeft=0;fontStyle=0;fontSize=16;spacing=5;" parent="1" vertex="1">
          <mxGeometry x="930" y="165" width="60" height="40" as="geometry" />
        </mxCell>
        <mxCell id="HEE8X-NlxO-QjpKQm_0w-61" value="Servers" style="html=1;shadow=0;dashed=0;shape=mxgraph.bootstrap.rrect;rSize=5;strokeColor=none;strokeWidth=1;fillColor=none;fontColor=#0085FC;whiteSpace=wrap;align=center;verticalAlign=middle;spacingLeft=0;fontStyle=0;fontSize=16;spacing=5;" parent="1" vertex="1">
          <mxGeometry x="1005" y="165" width="60" height="40" as="geometry" />
        </mxCell>
        <mxCell id="HEE8X-NlxO-QjpKQm_0w-62" value="" style="line;strokeWidth=1;rotatable=0;dashed=0;labelPosition=right;align=left;verticalAlign=middle;spacingTop=0;spacingLeft=6;points=[];portConstraint=eastwest;" parent="1" vertex="1">
          <mxGeometry x="930" y="190" width="60" height="10" as="geometry" />
        </mxCell>
        <mxCell id="HEE8X-NlxO-QjpKQm_0w-64" value="&lt;span style=&quot;font-size: 12px;&quot;&gt;4thWallCafe/Manage/Items&lt;/span&gt;" style="html=1;strokeWidth=1;shadow=0;dashed=0;shape=mxgraph.ios7ui.url;fillColor=#e0e0e0;strokeColor=#c0c0c0;buttonText=;strokeColor2=#222222;fontColor=#222222;fontSize=8;spacingTop=2;align=center;whiteSpace=wrap;" parent="1" vertex="1">
          <mxGeometry x="35" y="10" width="1030" height="20" as="geometry" />
        </mxCell>
        <mxCell id="1vnCUF-EmJs2KefHrxTE-27" value="" style="shape=table;startSize=0;container=1;collapsible=0;childLayout=tableLayout;fontSize=16;" parent="1" vertex="1">
          <mxGeometry x="50" y="240" width="985" height="440" as="geometry" />
        </mxCell>
        <mxCell id="1vnCUF-EmJs2KefHrxTE-28" value="" style="shape=tableRow;horizontal=0;startSize=0;swimlaneHead=0;swimlaneBody=0;strokeColor=inherit;top=0;left=0;bottom=0;right=0;collapsible=0;dropTarget=0;fillColor=none;points=[[0,0.5],[1,0.5]];portConstraint=eastwest;fontSize=16;" parent="1vnCUF-EmJs2KefHrxTE-27" vertex="1">
          <mxGeometry width="985" height="40" as="geometry" />
        </mxCell>
        <mxCell id="1vnCUF-EmJs2KefHrxTE-29" value="&amp;nbsp; Item" style="shape=partialRectangle;html=1;whiteSpace=wrap;connectable=0;strokeColor=#6c8ebf;overflow=hidden;fillColor=#dae8fc;top=0;left=0;bottom=0;right=0;pointerEvents=1;fontSize=16;align=left;" parent="1vnCUF-EmJs2KefHrxTE-28" vertex="1">
          <mxGeometry width="500" height="40" as="geometry">
            <mxRectangle width="500" height="40" as="alternateBounds" />
          </mxGeometry>
        </mxCell>
        <mxCell id="1vnCUF-EmJs2KefHrxTE-30" value="&amp;nbsp; Category" style="shape=partialRectangle;html=1;whiteSpace=wrap;connectable=0;strokeColor=#6c8ebf;overflow=hidden;fillColor=#dae8fc;top=0;left=0;bottom=0;right=0;pointerEvents=1;fontSize=16;align=left;" parent="1vnCUF-EmJs2KefHrxTE-28" vertex="1">
          <mxGeometry x="500" width="250" height="40" as="geometry">
            <mxRectangle width="250" height="40" as="alternateBounds" />
          </mxGeometry>
        </mxCell>
        <mxCell id="1vnCUF-EmJs2KefHrxTE-31" value="" style="shape=partialRectangle;html=1;whiteSpace=wrap;connectable=0;strokeColor=#6c8ebf;overflow=hidden;fillColor=#dae8fc;top=0;left=0;bottom=0;right=0;pointerEvents=1;fontSize=16;" parent="1vnCUF-EmJs2KefHrxTE-28" vertex="1">
          <mxGeometry x="750" width="235" height="40" as="geometry">
            <mxRectangle width="235" height="40" as="alternateBounds" />
          </mxGeometry>
        </mxCell>
        <mxCell id="1vnCUF-EmJs2KefHrxTE-32" value="" style="shape=tableRow;horizontal=0;startSize=0;swimlaneHead=0;swimlaneBody=0;strokeColor=inherit;top=0;left=0;bottom=0;right=0;collapsible=0;dropTarget=0;fillColor=none;points=[[0,0.5],[1,0.5]];portConstraint=eastwest;fontSize=16;" parent="1vnCUF-EmJs2KefHrxTE-27" vertex="1">
          <mxGeometry y="40" width="985" height="40" as="geometry" />
        </mxCell>
        <mxCell id="1vnCUF-EmJs2KefHrxTE-33" value="&amp;nbsp; Charcuterie Board" style="shape=partialRectangle;html=1;whiteSpace=wrap;connectable=0;strokeColor=inherit;overflow=hidden;fillColor=none;top=0;left=0;bottom=0;right=0;pointerEvents=1;fontSize=16;align=left;" parent="1vnCUF-EmJs2KefHrxTE-32" vertex="1">
          <mxGeometry width="500" height="40" as="geometry">
            <mxRectangle width="500" height="40" as="alternateBounds" />
          </mxGeometry>
        </mxCell>
        <mxCell id="1vnCUF-EmJs2KefHrxTE-34" value="&amp;nbsp; Appetizers" style="shape=partialRectangle;html=1;whiteSpace=wrap;connectable=0;strokeColor=inherit;overflow=hidden;fillColor=none;top=0;left=0;bottom=0;right=0;pointerEvents=1;fontSize=16;align=left;" parent="1vnCUF-EmJs2KefHrxTE-32" vertex="1">
          <mxGeometry x="500" width="250" height="40" as="geometry">
            <mxRectangle width="250" height="40" as="alternateBounds" />
          </mxGeometry>
        </mxCell>
        <mxCell id="1vnCUF-EmJs2KefHrxTE-35" value="&lt;font color=&quot;#3399ff&quot;&gt;Edit | &lt;/font&gt;&lt;font color=&quot;#ff2146&quot;&gt;Delete&lt;/font&gt;" style="shape=partialRectangle;html=1;whiteSpace=wrap;connectable=0;strokeColor=inherit;overflow=hidden;fillColor=none;top=0;left=0;bottom=0;right=0;pointerEvents=1;fontSize=16;" parent="1vnCUF-EmJs2KefHrxTE-32" vertex="1">
          <mxGeometry x="750" width="235" height="40" as="geometry">
            <mxRectangle width="235" height="40" as="alternateBounds" />
          </mxGeometry>
        </mxCell>
        <mxCell id="1vnCUF-EmJs2KefHrxTE-36" value="" style="shape=tableRow;horizontal=0;startSize=0;swimlaneHead=0;swimlaneBody=0;strokeColor=inherit;top=0;left=0;bottom=0;right=0;collapsible=0;dropTarget=0;fillColor=none;points=[[0,0.5],[1,0.5]];portConstraint=eastwest;fontSize=16;" parent="1vnCUF-EmJs2KefHrxTE-27" vertex="1">
          <mxGeometry y="80" width="985" height="40" as="geometry" />
        </mxCell>
        <mxCell id="1vnCUF-EmJs2KefHrxTE-37" value="&amp;nbsp; Hummus Platter" style="shape=partialRectangle;html=1;whiteSpace=wrap;connectable=0;strokeColor=inherit;overflow=hidden;fillColor=none;top=0;left=0;bottom=0;right=0;pointerEvents=1;fontSize=16;align=left;" parent="1vnCUF-EmJs2KefHrxTE-36" vertex="1">
          <mxGeometry width="500" height="40" as="geometry">
            <mxRectangle width="500" height="40" as="alternateBounds" />
          </mxGeometry>
        </mxCell>
        <mxCell id="1vnCUF-EmJs2KefHrxTE-38" value="&amp;nbsp; Appetizers" style="shape=partialRectangle;html=1;whiteSpace=wrap;connectable=0;strokeColor=inherit;overflow=hidden;fillColor=none;top=0;left=0;bottom=0;right=0;pointerEvents=1;fontSize=16;align=left;" parent="1vnCUF-EmJs2KefHrxTE-36" vertex="1">
          <mxGeometry x="500" width="250" height="40" as="geometry">
            <mxRectangle width="250" height="40" as="alternateBounds" />
          </mxGeometry>
        </mxCell>
        <mxCell id="1vnCUF-EmJs2KefHrxTE-39" value="&lt;span style=&quot;color: rgb(51, 153, 255);&quot;&gt;Edit | &lt;/span&gt;&lt;font color=&quot;#ff2146&quot;&gt;Delete&lt;/font&gt;" style="shape=partialRectangle;html=1;whiteSpace=wrap;connectable=0;strokeColor=inherit;overflow=hidden;fillColor=none;top=0;left=0;bottom=0;right=0;pointerEvents=1;fontSize=16;" parent="1vnCUF-EmJs2KefHrxTE-36" vertex="1">
          <mxGeometry x="750" width="235" height="40" as="geometry">
            <mxRectangle width="235" height="40" as="alternateBounds" />
          </mxGeometry>
        </mxCell>
        <mxCell id="1vnCUF-EmJs2KefHrxTE-43" style="shape=tableRow;horizontal=0;startSize=0;swimlaneHead=0;swimlaneBody=0;strokeColor=inherit;top=0;left=0;bottom=0;right=0;collapsible=0;dropTarget=0;fillColor=none;points=[[0,0.5],[1,0.5]];portConstraint=eastwest;fontSize=16;" parent="1vnCUF-EmJs2KefHrxTE-27" vertex="1">
          <mxGeometry y="120" width="985" height="40" as="geometry" />
        </mxCell>
        <mxCell id="1vnCUF-EmJs2KefHrxTE-44" value="&amp;nbsp; Bruschetta" style="shape=partialRectangle;html=1;whiteSpace=wrap;connectable=0;strokeColor=inherit;overflow=hidden;fillColor=none;top=0;left=0;bottom=0;right=0;pointerEvents=1;fontSize=16;align=left;" parent="1vnCUF-EmJs2KefHrxTE-43" vertex="1">
          <mxGeometry width="500" height="40" as="geometry">
            <mxRectangle width="500" height="40" as="alternateBounds" />
          </mxGeometry>
        </mxCell>
        <mxCell id="1vnCUF-EmJs2KefHrxTE-45" value="&amp;nbsp; Appetizers" style="shape=partialRectangle;html=1;whiteSpace=wrap;connectable=0;strokeColor=inherit;overflow=hidden;fillColor=none;top=0;left=0;bottom=0;right=0;pointerEvents=1;fontSize=16;align=left;" parent="1vnCUF-EmJs2KefHrxTE-43" vertex="1">
          <mxGeometry x="500" width="250" height="40" as="geometry">
            <mxRectangle width="250" height="40" as="alternateBounds" />
          </mxGeometry>
        </mxCell>
        <mxCell id="1vnCUF-EmJs2KefHrxTE-46" value="&lt;span style=&quot;color: rgb(51, 153, 255);&quot;&gt;Edit |&amp;nbsp;&lt;/span&gt;&lt;font color=&quot;#ff2146&quot;&gt;Delete&lt;/font&gt;" style="shape=partialRectangle;html=1;whiteSpace=wrap;connectable=0;strokeColor=inherit;overflow=hidden;fillColor=none;top=0;left=0;bottom=0;right=0;pointerEvents=1;fontSize=16;" parent="1vnCUF-EmJs2KefHrxTE-43" vertex="1">
          <mxGeometry x="750" width="235" height="40" as="geometry">
            <mxRectangle width="235" height="40" as="alternateBounds" />
          </mxGeometry>
        </mxCell>
        <mxCell id="1vnCUF-EmJs2KefHrxTE-47" style="shape=tableRow;horizontal=0;startSize=0;swimlaneHead=0;swimlaneBody=0;strokeColor=inherit;top=0;left=0;bottom=0;right=0;collapsible=0;dropTarget=0;fillColor=none;points=[[0,0.5],[1,0.5]];portConstraint=eastwest;fontSize=16;" parent="1vnCUF-EmJs2KefHrxTE-27" vertex="1">
          <mxGeometry y="160" width="985" height="40" as="geometry" />
        </mxCell>
        <mxCell id="1vnCUF-EmJs2KefHrxTE-48" value="&amp;nbsp; Pumpkin Spice Latte" style="shape=partialRectangle;html=1;whiteSpace=wrap;connectable=0;strokeColor=inherit;overflow=hidden;fillColor=none;top=0;left=0;bottom=0;right=0;pointerEvents=1;fontSize=16;align=left;" parent="1vnCUF-EmJs2KefHrxTE-47" vertex="1">
          <mxGeometry width="500" height="40" as="geometry">
            <mxRectangle width="500" height="40" as="alternateBounds" />
          </mxGeometry>
        </mxCell>
        <mxCell id="1vnCUF-EmJs2KefHrxTE-49" value="&amp;nbsp; Appetizers" style="shape=partialRectangle;html=1;whiteSpace=wrap;connectable=0;strokeColor=inherit;overflow=hidden;fillColor=none;top=0;left=0;bottom=0;right=0;pointerEvents=1;fontSize=16;align=left;" parent="1vnCUF-EmJs2KefHrxTE-47" vertex="1">
          <mxGeometry x="500" width="250" height="40" as="geometry">
            <mxRectangle width="250" height="40" as="alternateBounds" />
          </mxGeometry>
        </mxCell>
        <mxCell id="1vnCUF-EmJs2KefHrxTE-50" value="&lt;span style=&quot;color: rgb(51, 153, 255);&quot;&gt;Edit |&amp;nbsp;&lt;/span&gt;&lt;font color=&quot;#ff2146&quot;&gt;Delete&lt;/font&gt;" style="shape=partialRectangle;html=1;whiteSpace=wrap;connectable=0;strokeColor=inherit;overflow=hidden;fillColor=none;top=0;left=0;bottom=0;right=0;pointerEvents=1;fontSize=16;" parent="1vnCUF-EmJs2KefHrxTE-47" vertex="1">
          <mxGeometry x="750" width="235" height="40" as="geometry">
            <mxRectangle width="235" height="40" as="alternateBounds" />
          </mxGeometry>
        </mxCell>
        <mxCell id="1vnCUF-EmJs2KefHrxTE-51" style="shape=tableRow;horizontal=0;startSize=0;swimlaneHead=0;swimlaneBody=0;strokeColor=inherit;top=0;left=0;bottom=0;right=0;collapsible=0;dropTarget=0;fillColor=none;points=[[0,0.5],[1,0.5]];portConstraint=eastwest;fontSize=16;" parent="1vnCUF-EmJs2KefHrxTE-27" vertex="1">
          <mxGeometry y="200" width="985" height="40" as="geometry" />
        </mxCell>
        <mxCell id="1vnCUF-EmJs2KefHrxTE-52" value="&amp;nbsp; IPA" style="shape=partialRectangle;html=1;whiteSpace=wrap;connectable=0;strokeColor=inherit;overflow=hidden;fillColor=none;top=0;left=0;bottom=0;right=0;pointerEvents=1;fontSize=16;align=left;" parent="1vnCUF-EmJs2KefHrxTE-51" vertex="1">
          <mxGeometry width="500" height="40" as="geometry">
            <mxRectangle width="500" height="40" as="alternateBounds" />
          </mxGeometry>
        </mxCell>
        <mxCell id="1vnCUF-EmJs2KefHrxTE-53" value="&amp;nbsp; Beer" style="shape=partialRectangle;html=1;whiteSpace=wrap;connectable=0;strokeColor=inherit;overflow=hidden;fillColor=none;top=0;left=0;bottom=0;right=0;pointerEvents=1;fontSize=16;align=left;" parent="1vnCUF-EmJs2KefHrxTE-51" vertex="1">
          <mxGeometry x="500" width="250" height="40" as="geometry">
            <mxRectangle width="250" height="40" as="alternateBounds" />
          </mxGeometry>
        </mxCell>
        <mxCell id="1vnCUF-EmJs2KefHrxTE-54" value="&lt;span style=&quot;color: rgb(51, 153, 255);&quot;&gt;Edit |&amp;nbsp;&lt;/span&gt;&lt;font color=&quot;#ff2146&quot;&gt;Delete&lt;/font&gt;" style="shape=partialRectangle;html=1;whiteSpace=wrap;connectable=0;strokeColor=inherit;overflow=hidden;fillColor=none;top=0;left=0;bottom=0;right=0;pointerEvents=1;fontSize=16;" parent="1vnCUF-EmJs2KefHrxTE-51" vertex="1">
          <mxGeometry x="750" width="235" height="40" as="geometry">
            <mxRectangle width="235" height="40" as="alternateBounds" />
          </mxGeometry>
        </mxCell>
        <mxCell id="1vnCUF-EmJs2KefHrxTE-55" style="shape=tableRow;horizontal=0;startSize=0;swimlaneHead=0;swimlaneBody=0;strokeColor=inherit;top=0;left=0;bottom=0;right=0;collapsible=0;dropTarget=0;fillColor=none;points=[[0,0.5],[1,0.5]];portConstraint=eastwest;fontSize=16;" parent="1vnCUF-EmJs2KefHrxTE-27" vertex="1">
          <mxGeometry y="240" width="985" height="40" as="geometry" />
        </mxCell>
        <mxCell id="1vnCUF-EmJs2KefHrxTE-56" value="&amp;nbsp; Lager" style="shape=partialRectangle;html=1;whiteSpace=wrap;connectable=0;strokeColor=inherit;overflow=hidden;fillColor=none;top=0;left=0;bottom=0;right=0;pointerEvents=1;fontSize=16;align=left;" parent="1vnCUF-EmJs2KefHrxTE-55" vertex="1">
          <mxGeometry width="500" height="40" as="geometry">
            <mxRectangle width="500" height="40" as="alternateBounds" />
          </mxGeometry>
        </mxCell>
        <mxCell id="1vnCUF-EmJs2KefHrxTE-57" value="&amp;nbsp; Beer" style="shape=partialRectangle;html=1;whiteSpace=wrap;connectable=0;strokeColor=inherit;overflow=hidden;fillColor=none;top=0;left=0;bottom=0;right=0;pointerEvents=1;fontSize=16;align=left;" parent="1vnCUF-EmJs2KefHrxTE-55" vertex="1">
          <mxGeometry x="500" width="250" height="40" as="geometry">
            <mxRectangle width="250" height="40" as="alternateBounds" />
          </mxGeometry>
        </mxCell>
        <mxCell id="1vnCUF-EmJs2KefHrxTE-58" value="&lt;span style=&quot;color: rgb(51, 153, 255);&quot;&gt;Edit |&amp;nbsp;&lt;/span&gt;&lt;font color=&quot;#ff2146&quot;&gt;Delete&lt;/font&gt;" style="shape=partialRectangle;html=1;whiteSpace=wrap;connectable=0;strokeColor=inherit;overflow=hidden;fillColor=none;top=0;left=0;bottom=0;right=0;pointerEvents=1;fontSize=16;" parent="1vnCUF-EmJs2KefHrxTE-55" vertex="1">
          <mxGeometry x="750" width="235" height="40" as="geometry">
            <mxRectangle width="235" height="40" as="alternateBounds" />
          </mxGeometry>
        </mxCell>
        <mxCell id="1vnCUF-EmJs2KefHrxTE-59" style="shape=tableRow;horizontal=0;startSize=0;swimlaneHead=0;swimlaneBody=0;strokeColor=inherit;top=0;left=0;bottom=0;right=0;collapsible=0;dropTarget=0;fillColor=none;points=[[0,0.5],[1,0.5]];portConstraint=eastwest;fontSize=16;" parent="1vnCUF-EmJs2KefHrxTE-27" vertex="1">
          <mxGeometry y="280" width="985" height="40" as="geometry" />
        </mxCell>
        <mxCell id="1vnCUF-EmJs2KefHrxTE-60" value="&amp;nbsp; Stout" style="shape=partialRectangle;html=1;whiteSpace=wrap;connectable=0;strokeColor=inherit;overflow=hidden;fillColor=none;top=0;left=0;bottom=0;right=0;pointerEvents=1;fontSize=16;align=left;" parent="1vnCUF-EmJs2KefHrxTE-59" vertex="1">
          <mxGeometry width="500" height="40" as="geometry">
            <mxRectangle width="500" height="40" as="alternateBounds" />
          </mxGeometry>
        </mxCell>
        <mxCell id="1vnCUF-EmJs2KefHrxTE-61" value="&amp;nbsp; Beer" style="shape=partialRectangle;html=1;whiteSpace=wrap;connectable=0;strokeColor=inherit;overflow=hidden;fillColor=none;top=0;left=0;bottom=0;right=0;pointerEvents=1;fontSize=16;align=left;" parent="1vnCUF-EmJs2KefHrxTE-59" vertex="1">
          <mxGeometry x="500" width="250" height="40" as="geometry">
            <mxRectangle width="250" height="40" as="alternateBounds" />
          </mxGeometry>
        </mxCell>
        <mxCell id="1vnCUF-EmJs2KefHrxTE-62" value="&lt;span style=&quot;color: rgb(51, 153, 255);&quot;&gt;Edit |&amp;nbsp;&lt;/span&gt;&lt;font color=&quot;#ff2146&quot;&gt;Delete&lt;/font&gt;" style="shape=partialRectangle;html=1;whiteSpace=wrap;connectable=0;strokeColor=inherit;overflow=hidden;fillColor=none;top=0;left=0;bottom=0;right=0;pointerEvents=1;fontSize=16;" parent="1vnCUF-EmJs2KefHrxTE-59" vertex="1">
          <mxGeometry x="750" width="235" height="40" as="geometry">
            <mxRectangle width="235" height="40" as="alternateBounds" />
          </mxGeometry>
        </mxCell>
        <mxCell id="1vnCUF-EmJs2KefHrxTE-63" style="shape=tableRow;horizontal=0;startSize=0;swimlaneHead=0;swimlaneBody=0;strokeColor=inherit;top=0;left=0;bottom=0;right=0;collapsible=0;dropTarget=0;fillColor=none;points=[[0,0.5],[1,0.5]];portConstraint=eastwest;fontSize=16;" parent="1vnCUF-EmJs2KefHrxTE-27" vertex="1">
          <mxGeometry y="320" width="985" height="40" as="geometry" />
        </mxCell>
        <mxCell id="1vnCUF-EmJs2KefHrxTE-64" value="&amp;nbsp; Coffee" style="shape=partialRectangle;html=1;whiteSpace=wrap;connectable=0;strokeColor=inherit;overflow=hidden;fillColor=none;top=0;left=0;bottom=0;right=0;pointerEvents=1;fontSize=16;align=left;" parent="1vnCUF-EmJs2KefHrxTE-63" vertex="1">
          <mxGeometry width="500" height="40" as="geometry">
            <mxRectangle width="500" height="40" as="alternateBounds" />
          </mxGeometry>
        </mxCell>
        <mxCell id="1vnCUF-EmJs2KefHrxTE-65" value="&amp;nbsp; Beverages" style="shape=partialRectangle;html=1;whiteSpace=wrap;connectable=0;strokeColor=inherit;overflow=hidden;fillColor=none;top=0;left=0;bottom=0;right=0;pointerEvents=1;fontSize=16;align=left;" parent="1vnCUF-EmJs2KefHrxTE-63" vertex="1">
          <mxGeometry x="500" width="250" height="40" as="geometry">
            <mxRectangle width="250" height="40" as="alternateBounds" />
          </mxGeometry>
        </mxCell>
        <mxCell id="1vnCUF-EmJs2KefHrxTE-66" value="&lt;span style=&quot;color: rgb(51, 153, 255);&quot;&gt;Edit |&amp;nbsp;&lt;/span&gt;&lt;font color=&quot;#ff2146&quot;&gt;Delete&lt;/font&gt;" style="shape=partialRectangle;html=1;whiteSpace=wrap;connectable=0;strokeColor=inherit;overflow=hidden;fillColor=none;top=0;left=0;bottom=0;right=0;pointerEvents=1;fontSize=16;" parent="1vnCUF-EmJs2KefHrxTE-63" vertex="1">
          <mxGeometry x="750" width="235" height="40" as="geometry">
            <mxRectangle width="235" height="40" as="alternateBounds" />
          </mxGeometry>
        </mxCell>
        <mxCell id="1vnCUF-EmJs2KefHrxTE-67" style="shape=tableRow;horizontal=0;startSize=0;swimlaneHead=0;swimlaneBody=0;strokeColor=inherit;top=0;left=0;bottom=0;right=0;collapsible=0;dropTarget=0;fillColor=none;points=[[0,0.5],[1,0.5]];portConstraint=eastwest;fontSize=16;" parent="1vnCUF-EmJs2KefHrxTE-27" vertex="1">
          <mxGeometry y="360" width="985" height="40" as="geometry" />
        </mxCell>
        <mxCell id="1vnCUF-EmJs2KefHrxTE-68" value="&amp;nbsp; Hot Chocolate" style="shape=partialRectangle;html=1;whiteSpace=wrap;connectable=0;strokeColor=inherit;overflow=hidden;fillColor=none;top=0;left=0;bottom=0;right=0;pointerEvents=1;fontSize=16;align=left;" parent="1vnCUF-EmJs2KefHrxTE-67" vertex="1">
          <mxGeometry width="500" height="40" as="geometry">
            <mxRectangle width="500" height="40" as="alternateBounds" />
          </mxGeometry>
        </mxCell>
        <mxCell id="1vnCUF-EmJs2KefHrxTE-69" value="&amp;nbsp; Beverages" style="shape=partialRectangle;html=1;whiteSpace=wrap;connectable=0;strokeColor=inherit;overflow=hidden;fillColor=none;top=0;left=0;bottom=0;right=0;pointerEvents=1;fontSize=16;align=left;" parent="1vnCUF-EmJs2KefHrxTE-67" vertex="1">
          <mxGeometry x="500" width="250" height="40" as="geometry">
            <mxRectangle width="250" height="40" as="alternateBounds" />
          </mxGeometry>
        </mxCell>
        <mxCell id="1vnCUF-EmJs2KefHrxTE-70" value="&lt;span style=&quot;color: rgb(51, 153, 255);&quot;&gt;Edit |&amp;nbsp;&lt;/span&gt;&lt;font color=&quot;#ff2146&quot;&gt;Delete&lt;/font&gt;" style="shape=partialRectangle;html=1;whiteSpace=wrap;connectable=0;strokeColor=inherit;overflow=hidden;fillColor=none;top=0;left=0;bottom=0;right=0;pointerEvents=1;fontSize=16;" parent="1vnCUF-EmJs2KefHrxTE-67" vertex="1">
          <mxGeometry x="750" width="235" height="40" as="geometry">
            <mxRectangle width="235" height="40" as="alternateBounds" />
          </mxGeometry>
        </mxCell>
        <mxCell id="1vnCUF-EmJs2KefHrxTE-71" style="shape=tableRow;horizontal=0;startSize=0;swimlaneHead=0;swimlaneBody=0;strokeColor=inherit;top=0;left=0;bottom=0;right=0;collapsible=0;dropTarget=0;fillColor=none;points=[[0,0.5],[1,0.5]];portConstraint=eastwest;fontSize=16;" parent="1vnCUF-EmJs2KefHrxTE-27" vertex="1">
          <mxGeometry y="400" width="985" height="40" as="geometry" />
        </mxCell>
        <mxCell id="1vnCUF-EmJs2KefHrxTE-72" value="&amp;nbsp; Tea" style="shape=partialRectangle;html=1;whiteSpace=wrap;connectable=0;strokeColor=inherit;overflow=hidden;fillColor=none;top=0;left=0;bottom=0;right=0;pointerEvents=1;fontSize=16;align=left;" parent="1vnCUF-EmJs2KefHrxTE-71" vertex="1">
          <mxGeometry width="500" height="40" as="geometry">
            <mxRectangle width="500" height="40" as="alternateBounds" />
          </mxGeometry>
        </mxCell>
        <mxCell id="1vnCUF-EmJs2KefHrxTE-73" value="&amp;nbsp; Beverages" style="shape=partialRectangle;html=1;whiteSpace=wrap;connectable=0;strokeColor=inherit;overflow=hidden;fillColor=none;top=0;left=0;bottom=0;right=0;pointerEvents=1;fontSize=16;align=left;" parent="1vnCUF-EmJs2KefHrxTE-71" vertex="1">
          <mxGeometry x="500" width="250" height="40" as="geometry">
            <mxRectangle width="250" height="40" as="alternateBounds" />
          </mxGeometry>
        </mxCell>
        <mxCell id="1vnCUF-EmJs2KefHrxTE-74" value="&lt;span style=&quot;color: rgb(51, 153, 255);&quot;&gt;Edit |&amp;nbsp;&lt;/span&gt;&lt;font color=&quot;#ff2146&quot;&gt;Delete&lt;/font&gt;" style="shape=partialRectangle;html=1;whiteSpace=wrap;connectable=0;strokeColor=inherit;overflow=hidden;fillColor=none;top=0;left=0;bottom=0;right=0;pointerEvents=1;fontSize=16;" parent="1vnCUF-EmJs2KefHrxTE-71" vertex="1">
          <mxGeometry x="750" width="235" height="40" as="geometry">
            <mxRectangle width="235" height="40" as="alternateBounds" />
          </mxGeometry>
        </mxCell>
        <mxCell id="1vnCUF-EmJs2KefHrxTE-40" value="Search" style="strokeWidth=1;shadow=0;dashed=0;align=center;html=1;shape=mxgraph.mockup.forms.searchBox;strokeColor=#999999;mainText=;strokeColor2=#008cff;fontColor=#666666;fontSize=17;align=left;spacingLeft=3;whiteSpace=wrap;" parent="1" vertex="1">
          <mxGeometry x="475" y="170" width="150" height="30" as="geometry" />
        </mxCell>
        <mxCell id="1vnCUF-EmJs2KefHrxTE-41" value="Item" style="html=1;shadow=0;dashed=0;shape=mxgraph.bootstrap.rrect;rSize=5;strokeColor=none;strokeWidth=1;fillColor=#6C767D;fontColor=#ffffff;whiteSpace=wrap;align=right;verticalAlign=middle;fontStyle=0;fontSize=14;spacingRight=20;" parent="1" vertex="1">
          <mxGeometry x="160" y="165" width="140" height="40" as="geometry" />
        </mxCell>
        <mxCell id="1vnCUF-EmJs2KefHrxTE-42" value="" style="shape=triangle;direction=south;fillColor=#ffffff;strokeColor=none;perimeter=none;" parent="1vnCUF-EmJs2KefHrxTE-41" vertex="1">
          <mxGeometry x="1" y="0.5" width="10" height="5" relative="1" as="geometry">
            <mxPoint x="-17" y="-2.5" as="offset" />
          </mxGeometry>
        </mxCell>
      </root>
    </mxGraphModel>
  </diagram>
</mxfile>
